<svg xmlns="http://www.w3.org/2000/svg" viewBox="0 0 46.063 46.063">
  <path d="M11.242 23.533l3.226 1.23c.083-1.505.378-3.088.896-4.653.517-1.562 1.216-2.99 2.034-4.212l-3.224-1.23c-.164-.06-.25-.252-.19-.428.057-.175.237-.265.398-.204l3.412 1.3c1.33-1.8 2.927-3.07 4.558-3.53.166-.048.338.06.382.24.044.178-.056.362-.223.41-1.45.408-2.88 1.526-4.09 3.116l6 2.283 2.25-6.806c.06-.18.24-.27.4-.21.17.06.25.25.19.43l-2.25 6.8L31 20.36c-.01-2.056-.465-3.89-1.353-5.19-.102-.15-.07-.36.068-.47.14-.11.335-.076.437.073 1 1.46 1.49 3.527 1.47 5.825l3.41 1.3c.164.06.25.252.19.428-.044.137-.165.223-.294.223-.035 0-.07-.01-.105-.02L31.6 21.3c-.082 1.505-.378 3.087-.895 4.65-.516 1.564-1.216 2.992-2.035 4.215l3.226 1.228c.164.063.25.254.19.43-.045.137-.165.223-.294.223-.036 0-.07-.006-.106-.02l-3.41-1.3c-1.332 1.8-2.928 3.07-4.557 3.528-.03.008-.06.012-.08.012-.14 0-.27-.1-.31-.25-.05-.18.05-.364.22-.41 1.45-.41 2.88-1.528 4.09-3.115l-6-2.28-2.25 6.81c-.05.14-.17.23-.3.23-.03 0-.07 0-.1-.02-.17-.06-.25-.25-.19-.43l2.25-6.8-6-2.28c.01 2.06.46 3.89 1.35 5.19.1.15.07.36-.07.47-.06.05-.12.07-.188.07-.096 0-.19-.05-.25-.13-1-1.46-1.49-3.52-1.47-5.82l-3.416-1.3c-.16-.06-.247-.25-.19-.43.06-.17.24-.26.4-.2zm16.81 6.403c.828-1.205 1.54-2.632 2.06-4.206.52-1.575.807-3.164.87-4.66l-6.19-2.356-2.93 8.864 6.19 2.358zm-3.85-11.446l-6.19-2.36c-.828 1.205-1.538 2.632-2.057 4.205-.52 1.576-.81 3.166-.873 4.66l6.19 2.358 2.93-8.863z"/>
  <path d="M3.17 23.03c.65.496 1.093.965 1.327 1.408.3.586.45 1.282.45 2.09v7.01c0 .743.214 1.35.644 1.818.43.48.97.755 1.61.82.41.04.67.117.8.234.17.157.26.352.26.586 0 .248-.08.443-.25.586-.17.157-.41.235-.74.235-1.02 0-1.88-.326-2.57-.977-.92-.898-1.38-1.992-1.38-3.28v-7.032c0-.717-.21-1.316-.64-1.797-.43-.49-.974-.76-1.64-.82-.363-.04-.62-.13-.76-.27s-.21-.34-.21-.6c0-.24.075-.44.218-.58.14-.14.397-.23.76-.27.68-.05 1.226-.32 1.64-.8.43-.49.645-1.1.645-1.81v-7.03c0-1.22.39-2.24 1.17-3.05.78-.82 1.72-1.23 2.81-1.23.317 0 .558.08.727.24.17.16.255.36.255.59s-.083.43-.252.59c-.116.13-.383.22-.8.26-.65.066-1.19.34-1.62.82-.413.48-.62 1.08-.62 1.798v7.03c0 .82-.13 1.483-.39 1.99-.26.496-.724.99-1.39 1.485m39.72-.01c-.65.493-1.093.96-1.33 1.405-.3.585-.45 1.28-.45 2.09v7.01c0 .742-.212 1.35-.642 1.82-.43.48-.963.752-1.6.82-.405.04-.672.114-.802.23-.17.155-.25.35-.25.584 0 .25.088.445.257.588.17.16.418.238.74.238 1.03 0 1.89-.326 2.58-.977.926-.9 1.388-1.994 1.388-3.28v-7.04c0-.72.21-1.317.64-1.8.43-.492.98-.766 1.64-.82.36-.04.62-.13.76-.27s.213-.34.213-.6c0-.246-.07-.44-.21-.584-.14-.14-.395-.232-.76-.27-.673-.053-1.22-.32-1.64-.8-.43-.496-.64-1.1-.64-1.818v-7.03c0-1.226-.39-2.24-1.17-3.05-.78-.82-1.72-1.23-2.813-1.23-.316 0-.557.07-.726.23-.17.154-.25.35-.25.584 0 .23.084.43.253.585.11.13.38.215.8.254.65.068 1.19.34 1.62.82.412.48.62 1.08.62 1.8v7.03c0 .82.13 1.487.39 1.995.26.49.72.99 1.386 1.48"/>
  <path d="M23.03 8.23c-8.174 0-14.8 6.676-14.8 14.844 0 8.167 6.626 14.76 14.8 14.76 8.177 0 14.803-6.593 14.803-14.76 0-8.168-6.626-14.845-14.802-14.845zm0 1.602c7.24 0 13.072 5.934 13.072 13.242 0 7.307-5.832 13.157-13.07 13.157-7.24 0-13.157-5.85-13.157-13.15 0-7.31 5.918-13.24 13.156-13.24z"/>
</svg>
