<?xml version="1.0" encoding="UTF-8" standalone="no"?>
<svg
   xmlns:dc="http://purl.org/dc/elements/1.1/"
   xmlns:cc="http://creativecommons.org/ns#"
   xmlns:rdf="http://www.w3.org/1999/02/22-rdf-syntax-ns#"
   xmlns:svg="http://www.w3.org/2000/svg"
   xmlns="http://www.w3.org/2000/svg"
   xmlns:sodipodi="http://sodipodi.sourceforge.net/DTD/sodipodi-0.dtd"
   xmlns:inkscape="http://www.inkscape.org/namespaces/inkscape"
   viewBox="0 0 141.73228 53.149604"
   id="svg2"
   version="1.1"
   inkscape:version="0.48.5 r10040"
   width="100%"
   height="100%"
   sodipodi:docname="jGeoJSON-P.svg">
  <metadata
     id="metadata14">
    <rdf:RDF>
      <cc:Work
         rdf:about="">
        <dc:format>image/svg+xml</dc:format>
        <dc:type
           rdf:resource="http://purl.org/dc/dcmitype/StillImage" />
        <dc:title></dc:title>
      </cc:Work>
    </rdf:RDF>
  </metadata>
  <defs
     id="defs12" />
  <sodipodi:namedview
     pagecolor="#ffffff"
     bordercolor="#666666"
     borderopacity="1"
     objecttolerance="10"
     gridtolerance="10"
     guidetolerance="10"
     inkscape:pageopacity="0"
     inkscape:pageshadow="2"
     inkscape:window-width="1440"
     inkscape:window-height="807"
     id="namedview10"
     showgrid="false"
     fit-margin-top="0"
     fit-margin-left="0"
     fit-margin-right="0"
     fit-margin-bottom="0"
     inkscape:zoom="4.1706575"
     inkscape:cx="68.371736"
     inkscape:cy="28.617512"
     inkscape:window-x="0"
     inkscape:window-y="1"
     inkscape:window-maximized="1"
     inkscape:current-layer="svg2" />
  <rect
     style="fill:#6b93d6;fill-opacity:1;fill-rule:nonzero;stroke:none"
     id="bg-box"
     width="141.73228"
     height="53.149605"
     x="0"
     y="7.1054274e-15"
     rx="7.0866141"
     ry="7.0866141"
     inkscape:label="" />
  <path
     d="m 59.076641,21.072058 3.226,1.23 c 0.083,-1.505 0.378,-3.088 0.896,-4.653 0.517,-1.562 1.216,-2.99 2.034,-4.212 l -3.224,-1.23 c -0.164,-0.06 -0.25,-0.252 -0.19,-0.428 0.057,-0.175 0.237,-0.265 0.398,-0.204 l 3.412,1.3 c 1.33,-1.8 2.927,-3.0699997 4.558,-3.5299997 0.166,-0.048 0.338,0.06 0.382,0.24 0.044,0.178 -0.056,0.362 -0.223,0.41 -1.45,0.4079997 -2.88,1.5259997 -4.09,3.1159997 l 6,2.283 2.25,-6.8059997 c 0.06,-0.18 0.24,-0.27 0.4,-0.21 0.17,0.06 0.25,0.25 0.19,0.43 l -2.25,6.7999997 5.989,2.291 c -0.01,-2.056 -0.465,-3.89 -1.353,-5.19 -0.102,-0.15 -0.07,-0.36 0.068,-0.47 0.14,-0.11 0.335,-0.076 0.437,0.073 1,1.46 1.49,3.527 1.47,5.825 l 3.41,1.3 c 0.164,0.06 0.25,0.252 0.19,0.428 -0.044,0.137 -0.165,0.223 -0.294,0.223 -0.035,0 -0.07,-0.01 -0.105,-0.02 l -3.223,-1.229 c -0.082,1.505 -0.378,3.087 -0.895,4.65 -0.516,1.564 -1.216,2.992 -2.035,4.215 l 3.226,1.228 c 0.164,0.063 0.25,0.254 0.19,0.43 -0.045,0.137 -0.165,0.223 -0.294,0.223 -0.036,0 -0.07,-0.006 -0.106,-0.02 l -3.41,-1.3 c -1.332,1.8 -2.928,3.07 -4.557,3.528 -0.03,0.008 -0.06,0.012 -0.08,0.012 -0.14,0 -0.27,-0.1 -0.31,-0.25 -0.05,-0.18 0.05,-0.364 0.22,-0.41 1.45,-0.41 2.88,-1.528 4.09,-3.115 l -6,-2.28 -2.25,6.81 c -0.05,0.14 -0.17,0.23 -0.3,0.23 -0.03,0 -0.07,0 -0.1,-0.02 -0.17,-0.06 -0.25,-0.25 -0.19,-0.43 l 2.25,-6.8 -6,-2.28 c 0.01,2.06 0.46,3.89 1.35,5.19 0.1,0.15 0.07,0.36 -0.07,0.47 -0.06,0.05 -0.12,0.07 -0.188,0.07 -0.096,0 -0.19,-0.05 -0.25,-0.13 -1,-1.46 -1.49,-3.52 -1.47,-5.82 l -3.416,-1.3 c -0.16,-0.06 -0.247,-0.25 -0.19,-0.43 0.06,-0.17 0.24,-0.26 0.4,-0.2 z m 16.81,6.403 c 0.828,-1.205 1.54,-2.632 2.06,-4.206 0.52,-1.575 0.807,-3.164 0.87,-4.66 l -6.19,-2.356 -2.93,8.864 6.19,2.358 z m -3.85,-11.446 -6.19,-2.36 c -0.828,1.205 -1.538,2.632 -2.057,4.205 -0.52,1.576 -0.81,3.166 -0.873,4.66 l 6.19,2.358 2.93,-8.863 z"
     id="path4"
     style="fill:#ffffff"
     inkscape:connector-curvature="0" />
  <path
     d="m 51.004641,20.544802 c 0.65,0.496 1.093,0.965 1.327,1.408 0.3,0.586 0.45,1.282 0.45,2.09 v 7.01 c 0,0.743 0.214,1.35 0.644,1.818 0.43,0.48 0.97,0.755 1.61,0.82 0.41,0.04 0.67,0.117 0.8,0.234 0.17,0.157 0.26,0.352 0.26,0.586 0,0.248 -0.08,0.443 -0.25,0.586 -0.17,0.157 -0.41,0.235 -0.74,0.235 -1.02,0 -1.88,-0.326 -2.57,-0.977 -0.92,-0.898 -1.38,-1.992 -1.38,-3.28 v -7.032 c 0,-0.717 -0.21,-1.316 -0.64,-1.797 -0.43,-0.49 -0.974,-0.76 -1.64,-0.82 -0.363,-0.04 -0.62,-0.13 -0.76,-0.27 -0.14,-0.14 -0.21,-0.34 -0.21,-0.6 0,-0.24 0.075,-0.44 0.218,-0.58 0.14,-0.14 0.397,-0.23 0.76,-0.27 0.68,-0.05 1.226,-0.32 1.64,-0.8 0.43,-0.49 0.645,-1.1 0.645,-1.81 v -7.03 c 0,-1.2199997 0.39,-2.2399997 1.17,-3.0499996 0.78,-0.82 1.72,-1.23 2.81,-1.23 0.317,0 0.558,0.08 0.727,0.24 0.17,0.16 0.255,0.36 0.255,0.59 0,0.23 -0.083,0.43 -0.252,0.59 -0.116,0.13 -0.383,0.22 -0.8,0.26 -0.65,0.066 -1.19,0.3399999 -1.62,0.8199999 -0.413,0.48 -0.62,1.08 -0.62,1.7979997 v 7.03 c 0,0.82 -0.13,1.483 -0.39,1.99 -0.26,0.496 -0.724,0.99 -1.39,1.485 m 39.72,-0.01 c -0.65,0.493 -1.093,0.96 -1.33,1.405 -0.3,0.585 -0.45,1.28 -0.45,2.09 v 7.01 c 0,0.742 -0.212,1.35 -0.642,1.82 -0.43,0.48 -0.963,0.752 -1.6,0.82 -0.405,0.04 -0.672,0.114 -0.802,0.23 -0.17,0.155 -0.25,0.35 -0.25,0.584 0,0.25 0.088,0.445 0.257,0.588 0.17,0.16 0.418,0.238 0.74,0.238 1.03,0 1.89,-0.326 2.58,-0.977 0.926,-0.9 1.388,-1.994 1.388,-3.28 v -7.04 c 0,-0.72 0.21,-1.317 0.64,-1.8 0.43,-0.492 0.98,-0.766 1.64,-0.82 0.36,-0.04 0.62,-0.13 0.76,-0.27 0.14,-0.14 0.213,-0.34 0.213,-0.6 0,-0.246 -0.07,-0.44 -0.21,-0.584 -0.14,-0.14 -0.395,-0.232 -0.76,-0.27 -0.673,-0.053 -1.22,-0.32 -1.64,-0.8 -0.43,-0.496 -0.64,-1.1 -0.64,-1.818 v -7.03 c 0,-1.2259997 -0.39,-2.2399997 -1.17,-3.0499996 -0.78,-0.82 -1.72,-1.23 -2.813,-1.23 -0.316,0 -0.557,0.07 -0.726,0.23 -0.17,0.154 -0.25,0.35 -0.25,0.584 0,0.23 0.084,0.43 0.253,0.585 0.11,0.13 0.38,0.215 0.8,0.254 0.65,0.068 1.19,0.3399999 1.62,0.8199999 0.412,0.48 0.62,1.08 0.62,1.7999997 v 7.03 c 0,0.82 0.13,1.487 0.39,1.995 0.26,0.49 0.72,0.99 1.386,1.48"
     id="path6"
     style="fill:#ffffff"
     inkscape:connector-curvature="0" />
  <path
     d="m 70.864641,5.7733024 c -8.174,0 -14.8,6.6759996 -14.8,14.8439996 0,8.167 6.626,14.76 14.8,14.76 8.177,0 14.803,-6.593 14.803,-14.76 0,-8.168 -6.626,-14.8449996 -14.802,-14.8449996 z m 0,1.602 c 7.24,0 13.072,5.9339996 13.072,13.2419996 0,7.307 -5.832,13.157 -13.07,13.157 -7.24,0 -13.157,-5.85 -13.157,-13.15 0,-7.31 5.918,-13.2399996 13.156,-13.2399996 z"
     id="path8"
     style="fill:#ffffff"
     inkscape:connector-curvature="0" />
  <text
     xml:space="preserve"
     style="font-size:40px;font-style:normal;font-variant:normal;font-weight:normal;font-stretch:normal;line-height:125%;letter-spacing:0px;word-spacing:0px;fill:#000000;fill-opacity:1;stroke:none;font-family:Arial;-inkscape-font-specification:Arial"
     x="9.1845016"
     y="47.922707"
     id="text"
     sodipodi:linespacing="125%"
     inkscape:label=""><tspan
       sodipodi:role="line"
       id="tspan3763"
       x="9.1845016"
       y="47.922707"
       style="font-size:8px;fill:#ffffff;fill-opacity:1">Java API for GeoJSON Processing</tspan></text>
</svg>
